<svg width="33" height="32" viewBox="0 0 33 32" fill="none" xmlns="http://www.w3.org/2000/svg">
<g id="Frame 15">
<path id="search" opacity="0.5" d="M23.3264 28.899L18.2473 18.95L18.2423 18.94L18.2318 18.944C17.4814 19.2276 16.6737 19.383 15.8085 19.41C14.9436 19.4371 14.0741 19.309 13.1997 19.0256C11.0336 18.3237 9.44392 16.9797 8.42987 14.9934C7.41581 13.007 7.2597 10.9312 7.96164 8.76507C8.66358 6.59899 10.0076 5.00927 11.9939 3.99522C13.9803 2.98116 16.0561 2.82505 18.2222 3.52699C20.3883 4.22893 21.978 5.5729 22.9921 7.55927C24.0061 9.54564 24.1622 11.6215 23.4603 13.7876C23.177 14.6619 22.7707 15.4413 22.2415 16.126C21.7121 16.8108 21.1125 17.3739 20.4427 17.8153L20.4334 17.8214L20.4384 17.8314L25.5175 27.7804L23.3264 28.899ZM13.9659 16.6614C15.4616 17.146 16.9029 17.0345 18.2893 16.3268C19.6756 15.6191 20.6113 14.517 21.096 13.0214C21.5807 11.5257 21.4692 10.0843 20.7614 8.69801C20.0537 7.31168 18.9517 6.37595 17.456 5.89127C15.9604 5.40659 14.519 5.5181 13.1327 6.22583C11.7463 6.93357 10.8106 8.03558 10.3259 9.53124C9.84124 11.0269 9.95275 12.4683 10.6605 13.8546C11.3682 15.241 12.4702 16.1767 13.9659 16.6614Z" fill="#3C3030" stroke="#3C3030" stroke-width="0.025"/>
</g>
</svg>
